<?xml version="1.0" encoding="UTF-8" standalone="no"?>
<!-- Created with Inkscape (http://www.inkscape.org/) -->

<svg
   version="1.1"
   id="svg228"
   width="31.903732"
   height="45.999508"
   viewBox="0 0 31.903733 45.999507"
   sodipodi:docname="logo.inkscape.svg"
   inkscape:export-filename="logo.inkscapesvg"
   inkscape:export-xdpi="96"
   inkscape:export-ydpi="96"
   inkscape:version="1.2.2 (b0a8486541, 2022-12-01)"
   xmlns:inkscape="http://www.inkscape.org/namespaces/inkscape"
   xmlns:sodipodi="http://sodipodi.sourceforge.net/DTD/sodipodi-0.dtd"
   xmlns="http://www.w3.org/2000/svg"
   xmlns:svg="http://www.w3.org/2000/svg">
  <defs
     id="defs232" />
  <sodipodi:namedview
     id="namedview230"
     pagecolor="#ffffff"
     bordercolor="#000000"
     borderopacity="0.25"
     inkscape:showpageshadow="2"
     inkscape:pageopacity="0.0"
     inkscape:pagecheckerboard="0"
     inkscape:deskcolor="#d1d1d1"
     showgrid="true"
     showguides="true"
     inkscape:zoom="13.081615"
     inkscape:cx="17.964142"
     inkscape:cy="29.201287"
     inkscape:window-width="1866"
     inkscape:window-height="1016"
     inkscape:window-x="54"
     inkscape:window-y="27"
     inkscape:window-maximized="1"
     inkscape:current-layer="layer2">
    <inkscape:grid
       type="xygrid"
       id="grid504"
       originx="0"
       originy="-3.9999993e-08" />
    <sodipodi:guide
       position="32.637965,31.070911"
       orientation="1,0"
       id="guide601"
       inkscape:locked="false" />
  </sodipodi:namedview>
  <g
     inkscape:groupmode="layer"
     inkscape:label="Image"
     id="g234"
     transform="translate(-0.64,-0.94004474)">
    <g
       inkscape:groupmode="layer"
       id="layer1"
       inkscape:label="Background"
       transform="translate(0.64,0.94004474)">
      <path
         style="fill:#000000;stroke:#000000;stroke-width:0;stroke-linecap:round;stroke-linejoin:round;stroke-miterlimit:0"
         d="m 0.54560227,0.55668746 c -0.0560524,1.38241004 -0.007889,2.78343944 -0.0239651,4.17299164 0,13.5494049 0,27.0988089 0,40.6482139 0.19799147,0.225167 0.62440193,0.03951 0.91077993,0.09998 3.0450125,0 6.0900251,0 9.1350379,0 0.225166,-0.197992 0.03951,-0.624402 0.09998,-0.91078 0,-3.498168 0,-6.996336 0,-10.494504 3.349953,-0.01944 6.701315,0.04407 10.050339,-0.04625 2.644503,-0.09679 5.072786,-1.594402 6.714473,-3.611969 1.448029,-1.740054 2.363777,-3.859743 3.008758,-6.012121 1.208823,-4.330761 1.268267,-8.975174 0.225016,-13.345586 C 29.90423,7.9770022 28.514241,4.9190058 26.08323,2.8004346 24.4743,1.411273 22.381589,0.52251082 20.237239,0.55990954 15.04059,0.48588405 9.8429142,0.53734473 4.645854,0.52163716 3.2897602,0.53684313 1.920335,0.49130113 0.57252863,0.54427141 Z M 22.682401,2.7970562 c 0.07387,0.3610589 -0.08507,0.6423946 -0.331434,0.8937942 -1.764088,2.3082227 -3.614527,4.558417 -5.157157,7.0261226 -1.505614,2.333273 -3.091417,4.625069 -4.330916,7.116722 -0.101006,0.294564 -0.258845,0.497922 -0.585893,0.41611 C 11.977525,18.318191 12.065722,17.902 11.956908,17.740256 11.103917,14.798978 10.222563,11.865455 9.4020319,8.9152338 9.3115393,8.6290477 9.7850332,8.5783174 9.9372256,8.3947659 11.431284,7.4300816 12.899284,6.4191475 14.41149,5.4861987 c 2.122648,-1.0292675 4.2453,-2.0585294 6.367954,-3.0877868 0.634636,-4.157e-4 1.269271,-8.079e-4 1.903907,-0.00116 -3.16e-4,0.1332686 -6.33e-4,0.2665372 -9.5e-4,0.3998057 z m 2.227383,0.9067682 c 0.320813,-0.091576 0.2962,0.1964069 0.308191,0.433114 0.127178,1.4860976 0.394372,2.9645591 0.330322,4.4605204 -0.01411,2.4115892 0.02755,4.8253702 -0.02178,7.2355802 -0.129006,1.529346 -0.225751,3.085853 -0.369265,4.599492 -1.430176,0.373669 -2.904021,0.568846 -4.327974,0.975073 -2.75145,0.708446 -5.476117,1.553988 -8.235025,2.211125 -0.206811,0.04585 -0.419176,0.03963 -0.629533,0.0378 0.03087,-0.45725 -0.11491,-0.959945 0.208689,-1.341883 1.36419,-2.450951 2.687387,-4.926751 4.07699,-7.362289 2.079784,-3.1488 4.163011,-6.2988175 6.443516,-9.3073543 0.474691,-0.6415683 0.949383,-1.2831366 1.424074,-1.9247049 0.263923,-0.00531 0.527793,-0.016777 0.791799,-0.016469 z M 8.0097327,10.303944 c 0.445206,0.333553 0.4618118,0.952779 0.6611443,1.428812 0.8172674,2.741993 1.666283,5.475908 2.418215,8.23673 0.120993,0.518023 0.158489,1.090775 -0.138735,1.556522 -1.3258648,3.042739 -2.7956842,6.031536 -3.8364185,9.189624 -0.1376196,0.281775 -0.1140734,0.784599 -0.551906,0.65461 -0.2106015,-0.0065 -0.45684,0.03739 -0.6495113,-0.02334 C 5.0056433,28.996748 4.016262,26.673838 3.4126374,24.222302 3.1415971,23.382721 3.2065786,22.482857 3.123595,21.614583 c -0.038001,-1.068691 0.00426,-2.151612 0.10037,-3.21483 0.3699108,-1.192105 0.6993402,-2.40356 1.0941015,-3.583772 0.8869644,-1.295999 1.773877,-2.592034 2.6607442,-3.8881 0.3419694,-0.203829 0.6764928,-0.456856 1.030922,-0.623937 z M 24.680374,21.535771 c 0.194192,0.147448 0.486503,0.326369 0.30551,0.600488 -0.2341,0.901797 -0.468132,1.803612 -0.702149,2.70543 -1.534316,1.392845 -2.999221,2.866501 -4.590006,4.189778 -0.885376,0.656112 -1.782522,1.308855 -2.707068,1.902329 -1.135586,0.450034 -2.26029,0.955288 -3.402558,1.371285 -1.710814,0 -3.421627,0 -5.132441,0 0.012938,-0.507827 -0.068333,-1.033648 0.20132,-1.492494 0.6373456,-1.631598 1.2746945,-3.263194 1.912044,-4.89479 4.090118,-1.329398 8.161703,-2.720166 12.297532,-3.903594 0.606086,-0.162312 1.212744,-0.336402 1.817816,-0.478432 z"
         id="path313" />
    </g>
    <g
       inkscape:groupmode="layer"
       id="layer2"
       inkscape:label="Outline"
       transform="translate(0.64,0.94004474)">
      <path
         style="display:inline;fill:#000000;stroke-width:0.32"
         d="m 0.64,0.94004474 h 20 c 15.923793,0 15.819407,34.59950626 0,34.59950626 h -8.8 v 11.4 H 0.64 Z M 11.24,34.939551 h 9.4 c 15.123682,0 15.091484,-33.3995063 0,-33.3995063 H 1.24 V 46.339551 h 10 z m -2.2186724,-2.161422 0.01234,-0.56 1.0611934,-2.72 1.061192,-2.72 0.766464,-0.238219 0.766464,-0.238218 4.32,-1.416277 4.32,-1.416276 2.008719,-0.550119 2.008719,-0.55012 0.2149,0.2149 0.214899,0.2149 -0.391359,1.509714 -0.391356,1.509715 -2.152259,2.005994 -2.15226,2.005994 -1.432268,1.019101 -1.432268,1.0191 -1.767732,0.72731 -1.767732,0.727311 -2.64,0.0076 -2.6400004,0.0076 0.01234,-0.56 z m 6.3953884,-0.822501 1.767732,-0.72731 1.432268,-1.0191 1.432268,-1.019101 2.148125,-2.005994 2.148126,-2.005994 0.21053,-0.895799 0.210531,-0.895798 -0.918656,0.215423 -0.918656,0.215423 -4.8,1.558597 -4.8,1.558598 -0.758599,0.241778 -0.7586,0.241778 -0.904657,2.24 -0.904657,2.24 -0.01674,0.4 -0.01675,0.4 1.84,-0.0076 1.84,-0.0076 1.767732,-0.72731 z m -9.8739798,-2.057499 -0.952766,-2.48 -0.3904164,-1.44 -0.3904163,-1.44 -0.170364,-2.56 0.120808,-2.56 0.5498723,-1.827038 0.549872,-1.827038 1.3548292,-1.978609 1.3548288,-1.978608 0.544651,-0.343035 0.544652,-0.343036 0.197569,0.197569 0.197568,0.197568 1.4115132,4.751114 1.411512,4.751113 0.0063,0.480019 0.0063,0.48002 -1.564364,3.51998 -1.5644302,3.519981 -0.590746,1.68 -0.590746,1.68 h -0.541631 -0.54163 z m 2.9793844,-2.32 1.224253,-3.04 0.7288134,-1.464975 0.728812,-1.464975 -1.3018154,-4.455025 -1.301814,-4.455025 -0.129854,-0.147494 -0.129854,-0.147495 -0.768347,0.947495 -0.768348,0.947494 -0.8321696,1.510274 -0.8321699,1.510274 -0.4395891,2.101013 -0.3393749,2.110422 0.1880223,2.025911 0.2882368,2.03532 1.0052579,2.778166 1.0052579,2.778166 0.2252146,-0.264773 0.225215,-0.264773 z M 12.528984,24.155555 V 23.61298 l 2.129294,-3.857425 2.129295,-3.857426 1.916012,-2.88 1.916013,-2.88 2.066869,-2.8000002 2.066869,-2.8 h 0.562238 0.562238 l 0.205586,1.9669411 0.205586,1.9669411 -0.0019,3.873059 -0.0019,3.873059 -0.204544,2.627448 -0.204543,2.627449 -1.793539,0.35521 -1.793538,0.35521 -4.544163,1.257341 -4.544162,1.257342 H 12.864857 12.52902 Z m 5.44,-1.622156 3.68,-0.987422 1.793538,-0.356476 1.793539,-0.356475 0.204543,-2.627449 0.204544,-2.627448 -0.0218,-3.68 -0.0218,-3.6800002 -0.21628,-1.3822483 -0.216281,-1.3822487 -1.952344,2.6622487 -1.952345,2.6622485 -1.713839,2.56 -1.713839,2.56 -2.309762,4.078385 -2.309762,4.078386 0.535945,-0.267039 0.535946,-0.267039 z M 11.448228,15.018098 10.207471,10.778129 10.054905,10.233422 9.9023376,9.6887147 12.415661,8.0425077 14.928984,6.396301 l 3.2432,-1.5690861 3.243201,-1.5690861 h 0.996799 0.9968 V 3.733029 4.2079292 l -2.04065,2.6450998 -2.040649,2.6450998 -2.220029,3.4120012 -2.220029,3.412 -0.778772,1.468 -0.778772,1.467999 -0.32055,-3.1e-5 -0.320549,-3.1e-5 z m 3.955099,-1.061709 2.074343,-3.371572 2.482375,-3.3433445 2.482375,-3.3433437 h -0.193517 -0.193518 l -3.243201,1.5717898 -3.2432,1.5717897 -2.08,1.3410211 -2.08,1.3410215 -0.258825,0.2420144 -0.258826,0.2420137 1.027276,3.565175 1.027276,3.565175 0.19155,-0.0051 0.191549,-0.0051 z"
         id="path346"
         sodipodi:nodetypes="csscccccsscccccccccccccccccccccccccccccccccccccccccccccccccccccccccccccccccccccccccccccccccccccccccccccccccccccccccccccccccccccccccccccccccccccccccccccccccccccccccccccccccccccccccccccccc"
         transform="translate(-0.64,-0.94004474)" />
    </g>
  </g>
</svg>
