<?xml version="1.0" encoding="UTF-8" standalone="no"?>
<!-- Created with Inkscape (http://www.inkscape.org/) -->

<svg
   version="1.1"
   id="svg228"
   width="31.903732"
   height="45.999508"
   viewBox="0 0 31.903733 45.999507"
   xmlns="http://www.w3.org/2000/svg"
   xmlns:svg="http://www.w3.org/2000/svg">
  <defs
     id="defs232" />
  <g
     id="g234"
     transform="translate(-0.64,-0.94004474)">
    <path
       style="display:inline;fill:#000000;stroke-width:0.32"
       d="m 0.64,0.94004474 h 20 c 15.923793,0 15.819407,34.59950626 0,34.59950626 h -8.8 v 11.4 H 0.64 Z M 11.24,34.939551 h 9.4 c 15.123682,0 15.091484,-33.3995063 0,-33.3995063 H 1.24 V 46.339551 h 10 z m -2.2186724,-2.161422 0.01234,-0.56 1.0611934,-2.72 1.061192,-2.72 0.766464,-0.238219 0.766464,-0.238218 4.32,-1.416277 4.32,-1.416276 2.008719,-0.550119 2.008719,-0.55012 0.2149,0.2149 0.214899,0.2149 -0.391359,1.509714 -0.391356,1.509715 -2.152259,2.005994 -2.15226,2.005994 -1.432268,1.019101 -1.432268,1.0191 -1.767732,0.72731 -1.767732,0.727311 -2.64,0.0076 -2.6400004,0.0076 0.01234,-0.56 z m 6.3953884,-0.822501 1.767732,-0.72731 1.432268,-1.0191 1.432268,-1.019101 2.148125,-2.005994 2.148126,-2.005994 0.21053,-0.895799 0.210531,-0.895798 -0.918656,0.215423 -0.918656,0.215423 -4.8,1.558597 -4.8,1.558598 -0.758599,0.241778 -0.7586,0.241778 -0.904657,2.24 -0.904657,2.24 -0.01674,0.4 -0.01675,0.4 1.84,-0.0076 1.84,-0.0076 1.767732,-0.72731 z m -9.8739798,-2.057499 -0.952766,-2.48 -0.3904164,-1.44 -0.3904163,-1.44 -0.170364,-2.56 0.120808,-2.56 0.5498723,-1.827038 0.549872,-1.827038 1.3548292,-1.978609 1.3548288,-1.978608 0.544651,-0.343035 0.544652,-0.343036 0.197569,0.197569 0.197568,0.197568 1.4115132,4.751114 1.411512,4.751113 0.0063,0.480019 0.0063,0.48002 -1.564364,3.51998 -1.5644302,3.519981 -0.590746,1.68 -0.590746,1.68 h -0.541631 -0.54163 z m 2.9793844,-2.32 1.224253,-3.04 0.7288134,-1.464975 0.728812,-1.464975 -1.3018154,-4.455025 -1.301814,-4.455025 -0.129854,-0.147494 -0.129854,-0.147495 -0.768347,0.947495 -0.768348,0.947494 -0.8321696,1.510274 -0.8321699,1.510274 -0.4395891,2.101013 -0.3393749,2.110422 0.1880223,2.025911 0.2882368,2.03532 1.0052579,2.778166 1.0052579,2.778166 0.2252146,-0.264773 0.225215,-0.264773 z M 12.528984,24.155555 V 23.61298 l 2.129294,-3.857425 2.129295,-3.857426 1.916012,-2.88 1.916013,-2.88 2.066869,-2.8000002 2.066869,-2.8 h 0.562238 0.562238 l 0.205586,1.9669411 0.205586,1.9669411 -0.0019,3.873059 -0.0019,3.873059 -0.204544,2.627448 -0.204543,2.627449 -1.793539,0.35521 -1.793538,0.35521 -4.544163,1.257341 -4.544162,1.257342 H 12.864857 12.52902 Z m 5.44,-1.622156 3.68,-0.987422 1.793538,-0.356476 1.793539,-0.356475 0.204543,-2.627449 0.204544,-2.627448 -0.0218,-3.68 -0.0218,-3.6800002 -0.21628,-1.3822483 -0.216281,-1.3822487 -1.952344,2.6622487 -1.952345,2.6622485 -1.713839,2.56 -1.713839,2.56 -2.309762,4.078385 -2.309762,4.078386 0.535945,-0.267039 0.535946,-0.267039 z M 11.448228,15.018098 10.207471,10.778129 10.054905,10.233422 9.9023376,9.6887147 12.415661,8.0425077 14.928984,6.396301 l 3.2432,-1.5690861 3.243201,-1.5690861 h 0.996799 0.9968 V 3.733029 4.2079292 l -2.04065,2.6450998 -2.040649,2.6450998 -2.220029,3.4120012 -2.220029,3.412 -0.778772,1.468 -0.778772,1.467999 -0.32055,-3.1e-5 -0.320549,-3.1e-5 z m 3.955099,-1.061709 2.074343,-3.371572 2.482375,-3.3433445 2.482375,-3.3433437 h -0.193517 -0.193518 l -3.243201,1.5717898 -3.2432,1.5717897 -2.08,1.3410211 -2.08,1.3410215 -0.258825,0.2420144 -0.258826,0.2420137 1.027276,3.565175 1.027276,3.565175 0.19155,-0.0051 0.191549,-0.0051 z"
       id="path346" />
  </g>
</svg>
